<svg width="19" height="19" viewBox="0 0 19 19" fill="none" xmlns="http://www.w3.org/2000/svg">
<path fill-rule="evenodd" clip-rule="evenodd" d="M11.4 1.9C11.4 1.39609 11.1998 0.912817 10.8435 0.556497C10.4872 0.200178 10.0039 0 9.5 0C8.99609 0 8.51282 0.200178 8.1565 0.556497C7.80018 0.912817 7.6 1.39609 7.6 1.9V17.1C7.6 17.6039 7.80018 18.0872 8.1565 18.4435C8.51282 18.7998 8.99609 19 9.5 19C10.0039 19 10.4872 18.7998 10.8435 18.4435C11.1998 18.0872 11.4 17.6039 11.4 17.1V1.9ZM3.8 7.6C3.8 7.09609 3.59982 6.61282 3.2435 6.2565C2.88718 5.90018 2.40391 5.7 1.9 5.7C1.39609 5.7 0.912817 5.90018 0.556497 6.2565C0.200178 6.61282 0 7.09609 0 7.6V17.1C0 17.6039 0.200178 18.0872 0.556497 18.4435C0.912817 18.7998 1.39609 19 1.9 19C2.40391 19 2.88718 18.7998 3.2435 18.4435C3.59982 18.0872 3.8 17.6039 3.8 17.1V7.6ZM19 13.3C19 12.7961 18.7998 12.3128 18.4435 11.9565C18.0872 11.6002 17.6039 11.4 17.1 11.4C16.5961 11.4 16.1128 11.6002 15.7565 11.9565C15.4002 12.3128 15.2 12.7961 15.2 13.3V17.1C15.2 17.6039 15.4002 18.0872 15.7565 18.4435C16.1128 18.7998 16.5961 19 17.1 19C17.6039 19 18.0872 18.7998 18.4435 18.4435C18.7998 18.0872 19 17.6039 19 17.1V13.3Z" fill="#F5F5F5"/>
</svg>
