<svg width="40" height="40" viewBox="0 0 40 40" fill="none" xmlns="http://www.w3.org/2000/svg">
<path d="M15.975 11.9812H35.9437C38.1463 11.9812 39.9375 13.7724 39.9375 15.975V35.9437C39.9375 38.1463 38.1463 39.9375 35.9437 39.9375H15.975C13.7724 39.9375 11.9812 38.1463 11.9812 35.9437V15.975C11.9812 13.7724 13.7724 11.9812 15.975 11.9812Z" fill="#1E1E1E"/>
<path d="M3.99369 0H23.9624C25.0217 0 26.0375 0.420769 26.7865 1.16974C27.5354 1.91872 27.9562 2.93454 27.9562 3.99375V7.9875H11.9812C10.922 7.9875 9.90616 8.40827 9.15719 9.15724C8.40821 9.90622 7.98745 10.922 7.98745 11.9813V27.9563H3.99369C2.93449 27.9563 1.91866 27.5355 1.16969 26.7865C0.420715 26.0375 -5.53131e-05 25.0217 -5.53131e-05 23.9625V3.99375C-5.53131e-05 2.93454 0.420715 1.91872 1.16969 1.16974C1.91866 0.420769 2.93449 0 3.99369 0Z" fill="#1E1E1E"/>
</svg>
