<svg width="20" height="19" viewBox="0 0 20 19" fill="none" xmlns="http://www.w3.org/2000/svg">
<path d="M1.15299 12.6587L0.0281489 17.5132C-0.0106544 17.6907 -0.00932421 17.8746 0.0320422 18.0515C0.0734087 18.2284 0.153766 18.3938 0.267245 18.5356C0.380724 18.6775 0.524457 18.7922 0.687945 18.8713C0.851432 18.9505 1.03054 18.9922 1.2122 18.9933C1.29684 19.0018 1.38212 19.0018 1.46676 18.9933L6.35095 17.8685L15.7286 8.52633L10.4951 3.30469L1.15299 12.6587Z" fill="#F5F5F5"/>
<path d="M18.6768 3.84968L15.1839 0.356746C14.9543 0.128263 14.6435 0 14.3196 0C13.9956 0 13.6848 0.128263 13.4552 0.356746L11.5134 2.29858L16.7409 7.52614L18.6828 5.58431C18.7964 5.47009 18.8864 5.33459 18.9476 5.18556C19.0088 5.03652 19.0401 4.87688 19.0395 4.71577C19.039 4.55465 19.0066 4.39523 18.9444 4.24661C18.8822 4.098 18.7913 3.96312 18.6768 3.84968Z" fill="#F5F5F5"/>
</svg>
