<svg width="19" height="19" viewBox="0 0 19 19" fill="none" xmlns="http://www.w3.org/2000/svg">
<path d="M15.9464 12.8928H13.2321C13.0447 12.8928 12.8928 13.0447 12.8928 13.2321V15.9464C12.8928 16.1338 13.0447 16.2857 13.2321 16.2857H15.9464C16.1338 16.2857 16.2857 16.1338 16.2857 15.9464V13.2321C16.2857 13.0447 16.1338 12.8928 15.9464 12.8928Z" fill="#F5F5F5"/>
<path d="M12.5535 10.1785H10.5178C10.3304 10.1785 10.1785 10.3304 10.1785 10.5178V12.5535C10.1785 12.7408 10.3304 12.8928 10.5178 12.8928H12.5535C12.7409 12.8928 12.8928 12.7408 12.8928 12.5535V10.5178C12.8928 10.3304 12.7409 10.1785 12.5535 10.1785Z" fill="#F5F5F5"/>
<path d="M18.6607 16.2856H16.6249C16.4376 16.2856 16.2857 16.4375 16.2857 16.6249V18.6606C16.2857 18.848 16.4376 18.9999 16.6249 18.9999H18.6607C18.848 18.9999 18.9999 18.848 18.9999 18.6606V16.6249C18.9999 16.4375 18.848 16.2856 18.6607 16.2856Z" fill="#F5F5F5"/>
<path d="M18.6607 10.1785H17.3036C17.1162 10.1785 16.9643 10.3304 16.9643 10.5178V11.8749C16.9643 12.0623 17.1162 12.2142 17.3036 12.2142H18.6607C18.8481 12.2142 19 12.0623 19 11.8749V10.5178C19 10.3304 18.8481 10.1785 18.6607 10.1785Z" fill="#F5F5F5"/>
<path d="M11.875 16.9644H10.5178C10.3304 16.9644 10.1785 17.1163 10.1785 17.3036V18.6608C10.1785 18.8482 10.3304 19.0001 10.5178 19.0001H11.875C12.0624 19.0001 12.2143 18.8482 12.2143 18.6608V17.3036C12.2143 17.1163 12.0624 16.9644 11.875 16.9644Z" fill="#F5F5F5"/>
<path d="M17.6429 0H11.5357C11.1758 0 10.8306 0.142984 10.5761 0.397498C10.3216 0.652012 10.1786 0.997206 10.1786 1.35714V7.46429C10.1786 7.82422 10.3216 8.16942 10.5761 8.42393C10.8306 8.67844 11.1758 8.82143 11.5357 8.82143H17.6429C18.0028 8.82143 18.348 8.67844 18.6025 8.42393C18.857 8.16942 19 7.82422 19 7.46429V1.35714C19 0.997206 18.857 0.652012 18.6025 0.397498C18.348 0.142984 18.0028 0 17.6429 0ZM16.2857 5.76786C16.2857 5.85784 16.25 5.94414 16.1863 6.00777C16.1227 6.0714 16.0364 6.10714 15.9464 6.10714H13.2321C13.1422 6.10714 13.0559 6.0714 12.9922 6.00777C12.9286 5.94414 12.8929 5.85784 12.8929 5.76786V3.05357C12.8929 2.96359 12.9286 2.87729 12.9922 2.81366C13.0559 2.75003 13.1422 2.71429 13.2321 2.71429H15.9464C16.0364 2.71429 16.1227 2.75003 16.1863 2.81366C16.25 2.87729 16.2857 2.96359 16.2857 3.05357V5.76786ZM7.46429 0H1.35714C0.997206 0 0.652012 0.142984 0.397498 0.397498C0.142984 0.652012 0 0.997206 0 1.35714V7.46429C0 7.82422 0.142984 8.16942 0.397498 8.42393C0.652012 8.67844 0.997206 8.82143 1.35714 8.82143H7.46429C7.82422 8.82143 8.16942 8.67844 8.42393 8.42393C8.67844 8.16942 8.82143 7.82422 8.82143 7.46429V1.35714C8.82143 0.997206 8.67844 0.652012 8.42393 0.397498C8.16942 0.142984 7.82422 0 7.46429 0ZM6.10714 5.76786C6.10714 5.85784 6.0714 5.94414 6.00777 6.00777C5.94414 6.0714 5.85784 6.10714 5.76786 6.10714H3.05357C2.96359 6.10714 2.87729 6.0714 2.81366 6.00777C2.75003 5.94414 2.71429 5.85784 2.71429 5.76786V3.05357C2.71429 2.96359 2.75003 2.87729 2.81366 2.81366C2.87729 2.75003 2.96359 2.71429 3.05357 2.71429H5.76786C5.85784 2.71429 5.94414 2.75003 6.00777 2.81366C6.0714 2.87729 6.10714 2.96359 6.10714 3.05357V5.76786ZM7.46429 10.1786H1.35714C0.997206 10.1786 0.652012 10.3216 0.397498 10.5761C0.142984 10.8306 0 11.1758 0 11.5357V17.6429C0 18.0028 0.142984 18.348 0.397498 18.6025C0.652012 18.857 0.997206 19 1.35714 19H7.46429C7.82422 19 8.16942 18.857 8.42393 18.6025C8.67844 18.348 8.82143 18.0028 8.82143 17.6429V11.5357C8.82143 11.1758 8.67844 10.8306 8.42393 10.5761C8.16942 10.3216 7.82422 10.1786 7.46429 10.1786ZM6.10714 15.9464C6.10714 16.0364 6.0714 16.1227 6.00777 16.1863C5.94414 16.25 5.85784 16.2857 5.76786 16.2857H3.05357C2.96359 16.2857 2.87729 16.25 2.81366 16.1863C2.75003 16.1227 2.71429 16.0364 2.71429 15.9464V13.2321C2.71429 13.1422 2.75003 13.0559 2.81366 12.9922C2.87729 12.9286 2.96359 12.8929 3.05357 12.8929H5.76786C5.85784 12.8929 5.94414 12.9286 6.00777 12.9922C6.0714 13.0559 6.10714 13.1422 6.10714 13.2321V15.9464Z" fill="#F5F5F5"/>
</svg>
