<?xml version="1.0" encoding="UTF-8"?>
<svg width="29px" height="34px" viewBox="0 0 29 34" version="1.1" xmlns="http://www.w3.org/2000/svg" xmlns:xlink="http://www.w3.org/1999/xlink">
    <!-- Generator: Sketch 64 (93537) - https://sketch.com -->
    <title>ic-round-content-copy</title>
    <desc>Created with Sketch.</desc>
    <g id="Screens" stroke="none" stroke-width="1" fill="none" fill-rule="evenodd">
        <g id="shrunk" transform="translate(-605.000000, -813.000000)" fill-rule="nonzero">
            <g id="Group-4">
                <g id="Group-5" transform="translate(140.000000, 790.000000)">
                    <g id="Group-Copy" transform="translate(420.000000, 0.000000)">
                        <g id="ic-round-content-copy" transform="translate(42.000000, 22.000000)">
                            <g id="Icon" fill="#FFFFFF">
                                <path d="M22.5,1.5 C23.3284271,1.5 24,2.17157288 24,3 C24,3.82842712 23.3284271,4.5 22.5,4.5 L6,4.5 L6,24 C6,24.8284271 5.32842712,25.5 4.5,25.5 C3.67157288,25.5 3,24.8284271 3,24 L3,4.5 C3,2.85 4.35,1.5 6,1.5 L22.5,1.5 Z" id="Icon-Path"></path>
                                <path d="M12,7.5 L28.5,7.5 C30.1568542,7.5 31.5,8.84314575 31.5,10.5 L31.5,31.5 C31.5,33.1568542 30.1568542,34.5 28.5,34.5 L12,34.5 C10.3431458,34.5 9,33.1568542 9,31.5 L9,10.5 C9,8.84314575 10.3431458,7.5 12,7.5 Z" id="Icon-Path"></path>
                            </g>
                            <rect id="ViewBox" x="0" y="0" width="36" height="36"></rect>
                        </g>
                    </g>
                </g>
            </g>
        </g>
    </g>
</svg>