<?xml version="1.0" encoding="UTF-8"?>
<svg width="200px" height="200px" viewBox="0 0 200 200" version="1.1" xmlns="http://www.w3.org/2000/svg" xmlns:xlink="http://www.w3.org/1999/xlink">
    <!-- Generator: Sketch 64 (93537) - https://sketch.com -->
    <title>icon</title>
    <desc>Created with Sketch.</desc>
    <g id="icon" stroke="none" stroke-width="1" fill="none" fill-rule="evenodd">
        <g id="Group">
            <path d="M49.9700848,65.4735737 L2.95401899,159.505705 C1.0113711,163.391001 0,167.675238 0,172.01913 C0,187.472538 12.527462,200 27.9808695,200 L122.013001,200 C126.356894,200 130.641131,198.988629 134.526426,197.045981 C148.348374,190.135007 153.950826,173.327653 147.039852,159.505705 L100.023786,65.4735737 C97.3162533,60.0585087 92.9254256,55.6676809 87.5103606,52.9601484 C73.6884127,46.0491744 56.8810587,51.6516258 49.9700848,65.4735737 Z" id="Path" fill="#F0634D" fill-rule="nonzero" transform="translate(75.000000, 125.000000) scale(1, -1) translate(-75.000000, -125.000000) "></path>
            <path d="M133.31339,60.3157158 L101.969346,123.003803 C100.674247,125.594001 100,128.450158 100,131.346087 C100,141.648359 108.351641,150 118.653913,150 L181.342001,150 C184.237929,150 187.094087,149.325753 189.684284,148.030654 C198.898916,143.423338 202.633884,132.218435 198.026568,123.003803 L166.682524,60.3157158 C164.877502,56.7056724 161.950284,53.7784539 158.34024,51.9734323 C149.125608,47.3661163 137.920706,51.1010838 133.31339,60.3157158 Z" id="Path-Copy" fill="#26BAFF" fill-rule="nonzero" transform="translate(150.000000, 100.000000) scale(1, -1) translate(-150.000000, -100.000000) "></path>
            <rect id="Rectangle" fill="#54A870" x="20" y="0" width="160" height="50" rx="25"></rect>
        </g>
    </g>
</svg>