<?xml version="1.0" encoding="UTF-8"?>
<svg width="1108px" height="200px" viewBox="0 0 1108 200" version="1.1" xmlns="http://www.w3.org/2000/svg" xmlns:xlink="http://www.w3.org/1999/xlink">
    <!-- Generator: Sketch 64 (93537) - https://sketch.com -->
    <title>logo</title>
    <desc>Created with Sketch.</desc>
    <g id="logo" stroke="none" stroke-width="1" fill="none" fill-rule="evenodd">
        <g id="icon">
            <g id="Group">
                <path d="M49.9700848,65.4735737 L2.95401899,159.505705 C1.0113711,163.391001 0,167.675238 0,172.01913 C0,187.472538 12.527462,200 27.9808695,200 L122.013001,200 C126.356894,200 130.641131,198.988629 134.526426,197.045981 C148.348374,190.135007 153.950826,173.327653 147.039852,159.505705 L100.023786,65.4735737 C97.3162533,60.0585087 92.9254256,55.6676809 87.5103606,52.9601484 C73.6884127,46.0491744 56.8810587,51.6516258 49.9700848,65.4735737 Z" id="Path" fill="#F0634D" fill-rule="nonzero" transform="translate(75.000000, 125.000000) scale(1, -1) translate(-75.000000, -125.000000) "></path>
                <path d="M133.31339,60.3157158 L101.969346,123.003803 C100.674247,125.594001 100,128.450158 100,131.346087 C100,141.648359 108.351641,150 118.653913,150 L181.342001,150 C184.237929,150 187.094087,149.325753 189.684284,148.030654 C198.898916,143.423338 202.633884,132.218435 198.026568,123.003803 L166.682524,60.3157158 C164.877502,56.7056724 161.950284,53.7784539 158.34024,51.9734323 C149.125608,47.3661163 137.920706,51.1010838 133.31339,60.3157158 Z" id="Path-Copy" fill="#26BAFF" fill-rule="nonzero" transform="translate(150.000000, 100.000000) scale(1, -1) translate(-150.000000, -100.000000) "></path>
                <rect id="Rectangle" fill="#54A870" x="20" y="0" width="160" height="50" rx="25"></rect>
            </g>
        </g>
        <g id="wordmark" fill="#000000" transform="translate(250.000000, 50.000000)" fill-rule="nonzero">
            <path d="M38.6843067,100 L38.6843067,88.2222222 L40.1779093,88.2222222 L40.1779093,100 L78.862216,100 L78.862216,59.8518519 L78.5634955,59.7037037 L78.5634955,58.3703704 L62.8806685,50.962963 L78.5634955,43.5555556 L78.5634955,42.0740741 L78.862216,42.2222222 L78.862216,1.92592593 L40.1779093,1.92592593 L40.1779093,13.7037037 L38.6843067,13.7037037 L38.6843067,1.92592593 L0,1.92592593 L0,100 L38.6843067,100 Z M35.9958221,97.3333333 L2.68848464,97.3333333 L2.68848464,4.59259259 L35.9958221,4.59259259 L35.9958221,16.3703704 L42.8663939,16.3703704 L42.8663939,4.59259259 L76.1737314,4.59259259 L76.1737314,41.7777778 L56.7568979,50.962963 L76.1737314,60.1481481 L76.1737314,97.3333333 L42.8663939,97.3333333 L42.8663939,85.5555556 L35.9958221,85.5555556 L35.9958221,97.3333333 Z M172.660458,100 L172.660458,57.7037037 L161.085038,57.7037037 L172.660458,44.4444444 L172.660458,2.14814815 L93.7982418,2.14814815 L93.7982418,44.4444444 L105.373662,44.4444444 L93.7982418,57.7037037 L93.7982418,100 L172.660458,100 Z M169.971973,97.3333333 L96.4867264,97.3333333 L96.4867264,59.2592593 L110.899991,41.8518519 L96.4867264,41.7777778 L96.4867264,4.81481481 L96.4867264,4.81481481 L169.971973,4.81481481 L169.971973,42.8888889 L155.558708,60.2962963 L169.971973,60.3703704 L169.971973,97.3333333 L169.971973,97.3333333 Z M219.559579,100 L219.559579,2.07407407 L187.596484,2.07407407 L187.596484,100 L219.559579,100 Z M216.871094,97.3333333 L190.284968,97.3333333 L190.284968,4.74074074 L216.871094,4.74074074 L216.871094,97.3333333 Z M313.357821,100 L313.357821,65.1851852 L301.48368,65.1851852 L301.48368,1.92592593 L234.495604,1.92592593 L234.495604,100 L313.357821,100 Z M310.669336,97.3333333 L237.184089,97.3333333 L237.184089,4.59259259 L298.795195,4.59259259 L298.795195,67.8518519 L310.669336,67.8518519 L310.669336,97.3333333 Z M407.156062,100 L407.156062,65.1851852 L395.281922,65.1851852 L395.281922,1.92592593 L328.293846,1.92592593 L328.293846,100 L407.156062,100 Z M404.467578,97.3333333 L330.982331,97.3333333 L330.982331,4.59259259 L392.593437,4.59259259 L392.593437,67.8518519 L404.467578,67.8518519 L404.467578,97.3333333 Z M468.916529,100 L468.916529,88.5925926 L470.708852,88.5925926 L470.708852,100 L517.533293,100 L516.637131,98.0740741 L470.783532,2.51851852 L469.58865,0 L468.393768,2.51851852 L422.91357,98.0740741 L422.092088,100 L468.916529,100 Z M466.228044,97.3333333 L426.274175,97.3333333 L469.58865,6.14814815 L513.351206,97.3333333 L473.322656,97.3333333 L473.322656,86 L466.228044,86 L466.228044,97.3333333 Z M543.447297,100 L543.447297,89.1111111 L532.469318,89.1111111 L532.469318,100 L543.447297,100 Z M540.833493,97.3333333 L535.157803,97.3333333 L535.157803,91.7037037 L540.833493,91.7037037 L540.833493,97.3333333 Z M605.207764,100 L605.207764,88.3703704 L607.000087,88.3703704 L607.000087,100 L653.824528,100 L652.928366,98.0740741 L630.225607,51.037037 L652.928366,4 L653.824528,2.14814815 L607.000087,2.14814815 L607.000087,13.5555556 L605.207764,13.5555556 L605.207764,2.14814815 L558.383323,2.14814815 L559.279485,4 L582.206284,51.037037 L559.279485,98.0740741 L558.383323,100 L605.207764,100 Z M602.519279,97.4074074 L562.56541,97.4074074 L585.118809,51.037037 L562.56541,4.66666667 L602.519279,4.66666667 L602.519279,16.1481481 L609.688572,16.1481481 L609.688572,4.66666667 L649.642441,4.66666667 L627.313082,51.037037 L649.642441,97.4074074 L609.688572,97.4074074 L609.688572,85.7777778 L602.519279,85.7777778 L602.519279,97.4074074 Z M738.735834,100 L738.735834,55.2592593 L763.305597,4 L764.201758,2.14814815 L717.377317,2.14814815 L717.377317,13.7777778 L715.584994,13.7777778 L715.584994,2.14814815 L668.760554,2.14814815 L669.656715,4 L694.226478,54.6666667 L694.226478,100 L738.735834,100 Z M736.04735,97.4074074 L696.914962,97.4074074 L696.914962,54.0740741 L694.226478,48.6666667 L672.942641,4.74074074 L712.89651,4.74074074 L712.89651,16.4444444 L720.065802,16.4444444 L720.065802,4.74074074 L760.019671,4.74074074 L736.34607,54 L736.04735,54.6666667 L736.04735,97.4074074 Z M858,100 L858,57.7037037 L846.42458,57.7037037 L858,44.4444444 L858,2.14814815 L779.137784,2.14814815 L779.137784,44.4444444 L790.713204,44.4444444 L779.137784,57.7037037 L779.137784,100 L858,100 Z M855.311515,97.3333333 L781.826269,97.3333333 L781.826269,59.2592593 L796.239533,41.8518519 L781.826269,41.7777778 L781.826269,4.81481481 L781.826269,4.81481481 L855.311515,4.81481481 L855.311515,42.8888889 L840.898251,60.2962963 L855.311515,60.3703704 L855.311515,97.3333333 L855.311515,97.3333333 Z" id="kzilla.xyz"></path>
        </g>
    </g>
</svg>